<svg width="79" height="79" viewBox="0 0 79 79" fill="none" xmlns="http://www.w3.org/2000/svg">
<g clip-path="url(#clip0_13_96)">
<path d="M69.6005 59.25H9.39964C4.98834 59.25 1.41077 55.6724 1.41077 51.2611V7.98887C1.41077 3.57757 4.98834 0 9.39964 0H69.5991C74.0118 0 77.5893 3.57757 77.5893 7.98887V51.2597C77.5893 55.6724 74.0118 59.25 69.6005 59.25Z" fill="#38454F"/>
<path d="M69.6005 59.25H9.39964C4.98834 59.25 1.41077 55.6724 1.41077 51.2611V71.0111C1.41077 75.4224 4.98834 79 9.39964 79H69.5991C74.0118 79 77.5893 75.4224 77.5893 71.0111V51.2611C77.5893 55.6724 74.0118 59.25 69.6005 59.25Z" fill="#283238"/>
<path d="M40.2053 45.1429C53.8399 45.1429 64.8928 36.9321 64.8928 26.8036C64.8928 16.6751 53.8399 8.46429 40.2053 8.46429C26.5708 8.46429 15.5178 16.6751 15.5178 26.8036C15.5178 36.9321 26.5708 45.1429 40.2053 45.1429Z" fill="#546A79"/>
<path d="M40.2053 8.46429C45.0808 8.46429 49.612 9.52796 53.4407 11.3407L64.78 0H13.9943L25.8809 11.8867C29.9226 9.73957 34.8587 8.46429 40.2053 8.46429Z" fill="#283238"/>
<path d="M66.3036 52.1964C69.4201 52.1964 71.9465 49.9858 71.9465 47.2589C71.9465 44.532 69.4201 42.3214 66.3036 42.3214C63.1872 42.3214 60.6608 44.532 60.6608 47.2589C60.6608 49.9858 63.1872 52.1964 66.3036 52.1964Z" fill="#E0E1E2"/>
<path d="M12.6964 52.1964C15.8129 52.1964 18.3393 49.9858 18.3393 47.2589C18.3393 44.532 15.8129 42.3214 12.6964 42.3214C9.57998 42.3214 7.05359 44.532 7.05359 47.2589C7.05359 49.9858 9.57998 52.1964 12.6964 52.1964Z" fill="#E0E1E2"/>
<path d="M66.3036 64.8929H12.6964V79H66.3036V64.8929Z" fill="#38454F"/>
<path d="M25.3929 70.5357H19.75V74.7678H25.3929V70.5357Z" fill="#546A79"/>
<path d="M36.6786 70.5357H31.0358V74.7678H36.6786V70.5357Z" fill="#546A79"/>
<path d="M47.9643 70.5357H42.3214V74.7678H47.9643V70.5357Z" fill="#546A79"/>
<path d="M59.25 70.5357H53.6072V74.7678H59.25V70.5357Z" fill="#546A79"/>
</g>
<defs>
<clipPath id="clip0_13_96">
<rect width="79" height="79" fill="white"/>
</clipPath>
</defs>
</svg>
